<svg width="56" height="56" viewBox="0 0 56 56" fill="none" xmlns="http://www.w3.org/2000/svg">
<g clip-path="url(#clip0_15_79)">
<path d="M56 28C56 12.536 43.464 0 28 0C12.536 0 0 12.536 0 28C0 41.9754 10.2391 53.5593 23.625 55.6598V36.0938H16.5156V28H23.625V21.8313C23.625 14.8138 27.8053 10.9375 34.201 10.9375C37.2635 10.9375 40.4688 11.4844 40.4688 11.4844V18.375H36.9381C33.46 18.375 32.375 20.5335 32.375 22.75V28H40.1406L38.8992 36.0938H32.375V55.6598C45.7609 53.5593 56 41.9754 56 28Z" fill="#561010"/>
</g>
<defs>
<clipPath id="clip0_15_79">
<rect width="56" height="56" fill="white"/>
</clipPath>
</defs>
</svg>
