<svg width="56" height="56" viewBox="0 0 56 56" fill="none" xmlns="http://www.w3.org/2000/svg">
<g clip-path="url(#clip0_15_86)">
<path d="M51.8547 0H4.13437C1.84844 0 0 1.80469 0 4.03594V51.9531C0 54.1844 1.84844 56 4.13437 56H51.8547C54.1406 56 56 54.1844 56 51.9641V4.03594C56 1.80469 54.1406 0 51.8547 0ZM16.6141 47.7203H8.30156V20.9891H16.6141V47.7203ZM12.4578 17.3469C9.78906 17.3469 7.63438 15.1922 7.63438 12.5344C7.63438 9.87656 9.78906 7.72187 12.4578 7.72187C15.1156 7.72187 17.2703 9.87656 17.2703 12.5344C17.2703 15.1812 15.1156 17.3469 12.4578 17.3469ZM47.7203 47.7203H39.4187V34.7266C39.4187 31.6312 39.3641 27.6391 35.0984 27.6391C30.7781 27.6391 30.1219 31.0187 30.1219 34.5078V47.7203H21.8313V20.9891H29.7937V24.6422H29.9031C31.0078 22.5422 33.7203 20.3219 37.7563 20.3219C46.1672 20.3219 47.7203 25.8563 47.7203 33.0531V47.7203Z" fill="#561010"/>
</g>
<defs>
<clipPath id="clip0_15_86">
<rect width="56" height="56" fill="white"/>
</clipPath>
</defs>
</svg>
