<svg width="285" height="33" viewBox="0 0 285 33" fill="none" xmlns="http://www.w3.org/2000/svg">
<path d="M16.0009 1.52446C14.9192 1.58424 14.1229 1.70381 13.6121 1.88315C13.1313 2.0625 12.8008 2.40625 12.6205 2.9144C12.4402 3.42256 12.35 4.24456 12.35 5.38043V28.5163C12.35 29.3533 12.4101 29.966 12.5303 30.3546C12.6505 30.7432 12.8609 31.0122 13.1613 31.1617C13.4618 31.2812 13.9576 31.341 14.6488 31.341H16.1362C17.1879 31.341 18.3297 30.8179 19.5617 29.7717C20.7937 28.7255 21.9055 27.3505 22.8971 25.6467C23.8887 23.913 24.5498 22.1196 24.8804 20.2663H25.917C25.8269 21.3424 25.7818 22.7174 25.7818 24.3913C25.7818 27.6196 25.887 30.2799 26.0973 32.3723C24.054 32.2826 20.6134 32.2378 15.7756 32.2378C8.74418 32.2378 3.48565 32.2826 0 32.3723V31.4755C0.961559 31.4158 1.65268 31.2962 2.07336 31.1168C2.52409 30.9375 2.82458 30.5937 2.97482 30.0856C3.12507 29.5774 3.20019 28.7554 3.20019 27.6196V5.38043C3.20019 4.24456 3.11004 3.42256 2.92975 2.9144C2.77951 2.40625 2.49404 2.0625 2.07336 1.88315C1.65268 1.70381 0.961559 1.58424 0 1.52446V0.627718C1.71278 0.717391 4.38711 0.762228 8.02301 0.762228C11.4786 0.762228 14.1379 0.717391 16.0009 0.627718V1.52446Z" fill="#561010"/>
<path d="M45.6129 0C49.0084 0 51.9832 0.642663 54.5374 1.92799C57.0915 3.21332 59.0747 5.08152 60.487 7.53261C61.8993 9.9538 62.6055 12.8533 62.6055 16.231C62.6055 19.519 61.8843 22.4334 60.442 24.9742C58.9996 27.5149 56.9864 29.4878 54.4022 30.8927C51.818 32.2976 48.8732 33 45.5678 33C42.1723 33 39.1975 32.3573 36.6434 31.072C34.0892 29.7867 32.106 27.9334 30.6937 25.5122C29.2814 23.0611 28.5753 20.1467 28.5753 16.769C28.5753 13.481 29.2965 10.5666 30.7388 8.02581C32.1811 5.48505 34.1944 3.51223 36.7786 2.10734C39.3628 0.702445 42.3076 0 45.6129 0ZM45.4326 0.807064C43.9602 0.807064 42.6531 1.47962 41.5113 2.82473C40.3995 4.13995 39.5431 5.99321 38.9421 8.38451C38.3411 10.7758 38.0406 13.5109 38.0406 16.5897C38.0406 19.6984 38.3862 22.4334 39.0773 24.7948C39.7684 27.1562 40.6999 28.9796 41.8718 30.2649C43.0437 31.5503 44.3358 32.1929 45.7481 32.1929C47.2205 32.1929 48.5126 31.5353 49.6244 30.2201C50.7663 28.875 51.6377 27.0068 52.2387 24.6155C52.8396 22.2242 53.1401 19.4891 53.1401 16.4103C53.1401 13.3016 52.7946 10.5666 52.1034 8.20516C51.4123 5.84375 50.4808 4.02038 49.3089 2.73506C48.137 1.44973 46.8449 0.807064 45.4326 0.807064Z" fill="#561010"/>
<path d="M83.3458 0C85.2689 0 86.9216 0.254075 88.3038 0.762228C89.6861 1.27038 90.9481 1.98777 92.09 2.9144C92.4205 3.18343 92.721 3.31794 92.9914 3.31794C93.2919 3.31794 93.5323 3.1087 93.7126 2.69022C93.8929 2.24185 94.0281 1.55435 94.1183 0.627718H95.1549C95.0347 2.75 94.9746 6.48641 94.9746 11.837H93.938C93.7276 9.47554 93.337 7.60734 92.7661 6.23234C92.1951 4.85734 91.2035 3.69158 89.7912 2.73506C89.1602 2.31658 88.424 1.98777 87.5826 1.74864C86.7713 1.50951 85.96 1.38994 85.1487 1.38994C82.9852 1.38994 81.2273 2.15217 79.8752 3.67663C78.553 5.1712 77.6065 7.06929 77.0356 9.37092C76.4947 11.6726 76.2242 14.0788 76.2242 16.5897C76.2242 21.7908 76.8553 25.6766 78.1173 28.2473C79.4094 30.8179 81.1973 32.1033 83.481 32.1033C84.4125 32.1033 85.1487 31.9239 85.6896 31.5652C86.3206 31.1168 86.6361 30.3696 86.6361 29.3234V24.8397C86.6361 23.3451 86.5159 22.2541 86.2755 21.5666C86.0351 20.8492 85.5994 20.3709 84.9684 20.1318C84.3674 19.8628 83.4059 19.6984 82.0837 19.6386V18.7418C84.1271 18.8315 86.9967 18.8764 90.6927 18.8764C93.7877 18.8764 96.1015 18.8315 97.634 18.7418V19.6386C97.0931 19.6984 96.6874 19.8179 96.417 19.9973C96.1766 20.1766 96.0113 20.5204 95.9212 21.0285C95.831 21.5367 95.786 22.3587 95.786 23.4946V32.3723H94.8845C94.8544 31.7446 94.7192 31.1617 94.4788 30.6236C94.2384 30.0856 93.9079 29.8166 93.4872 29.8166C92.8562 29.8166 91.8345 30.1603 90.4223 30.8478C87.4174 32.2826 84.8783 33 82.8049 33C77.2158 33 72.994 31.5951 70.1394 28.7853C67.2847 25.9755 65.8574 21.9701 65.8574 16.769C65.8574 13.481 66.5936 10.5666 68.066 8.02581C69.5684 5.48505 71.6418 3.51223 74.2861 2.10734C76.9304 0.702445 79.9503 0 83.3458 0Z" fill="#561010"/>
<path d="M116.964 0C120.359 0 123.334 0.642663 125.888 1.92799C128.443 3.21332 130.426 5.08152 131.838 7.53261C133.25 9.9538 133.957 12.8533 133.957 16.231C133.957 19.519 133.235 22.4334 131.793 24.9742C130.351 27.5149 128.337 29.4878 125.753 30.8927C123.169 32.2976 120.224 33 116.919 33C113.523 33 110.549 32.3573 107.994 31.072C105.44 29.7867 103.457 27.9334 102.045 25.5122C100.632 23.0611 99.9263 20.1467 99.9263 16.769C99.9263 13.481 100.648 10.5666 102.09 8.02581C103.532 5.48505 105.545 3.51223 108.13 2.10734C110.714 0.702445 113.659 0 116.964 0ZM116.784 0.807064C115.311 0.807064 114.004 1.47962 112.862 2.82473C111.751 4.13995 110.894 5.99321 110.293 8.38451C109.692 10.7758 109.392 13.5109 109.392 16.5897C109.392 19.6984 109.737 22.4334 110.428 24.7948C111.119 27.1562 112.051 28.9796 113.223 30.2649C114.395 31.5503 115.687 32.1929 117.099 32.1929C118.572 32.1929 119.864 31.5353 120.975 30.2201C122.117 28.875 122.989 27.0068 123.59 24.6155C124.191 22.2242 124.491 19.4891 124.491 16.4103C124.491 13.3016 124.146 10.5666 123.454 8.20516C122.763 5.84375 121.832 4.02038 120.66 2.73506C119.488 1.44973 118.196 0.807064 116.784 0.807064Z" fill="#561010"/>
<path d="M152.046 1.52446C151.084 1.58424 150.378 1.70381 149.928 1.88315C149.507 2.0625 149.221 2.40625 149.071 2.9144C148.921 3.42256 148.846 4.24456 148.846 5.38043V27.6196C148.846 28.7554 148.921 29.5774 149.071 30.0856C149.251 30.5937 149.552 30.9375 149.973 31.1168C150.393 31.2962 151.084 31.4158 152.046 31.4755V32.3723C150.303 32.2826 147.794 32.2378 144.519 32.2378C140.883 32.2378 138.209 32.2826 136.496 32.3723V31.4755C137.457 31.4158 138.148 31.2962 138.569 31.1168C139.02 30.9375 139.32 30.5937 139.471 30.0856C139.621 29.5774 139.696 28.7554 139.696 27.6196V5.38043C139.696 4.24456 139.606 3.42256 139.426 2.9144C139.275 2.40625 138.99 2.0625 138.569 1.88315C138.148 1.70381 137.457 1.58424 136.496 1.52446V0.627718C138.209 0.717391 140.883 0.762228 144.519 0.762228C147.764 0.762228 150.273 0.717391 152.046 0.627718V1.52446Z" fill="#561010"/>
<path d="M166.937 19.5489V27.1712C166.937 28.4266 167.057 29.3383 167.297 29.9062C167.568 30.4742 168.033 30.8628 168.695 31.072C169.386 31.2514 170.467 31.341 171.94 31.341V32.3723C167.883 32.2826 164.788 32.2378 162.655 32.2378C161.242 32.2378 159.274 32.2677 156.75 32.3274L154.587 32.3723V31.4755C155.548 31.4158 156.239 31.2962 156.66 31.1168C157.111 30.9375 157.411 30.5937 157.561 30.0856C157.712 29.5774 157.787 28.7554 157.787 27.6196V5.38043C157.787 4.24456 157.697 3.42256 157.516 2.9144C157.366 2.40625 157.081 2.0625 156.66 1.88315C156.239 1.70381 155.548 1.58424 154.587 1.52446V0.627718C156.299 0.717391 158.884 0.762228 162.339 0.762228L167.523 0.717393C168.124 0.687502 168.815 0.672555 169.596 0.672555C174.043 0.672555 177.409 1.47962 179.692 3.09375C182.006 4.67799 183.163 6.81522 183.163 9.50543C183.163 11.1495 182.712 12.7337 181.811 14.2582C180.909 15.7527 179.377 17.0082 177.213 18.0245C175.05 19.0408 172.18 19.5489 168.604 19.5489H166.937ZM169.371 1.52446C168.679 1.52446 168.154 1.62908 167.793 1.83831C167.463 2.04755 167.237 2.4212 167.117 2.95924C166.997 3.49728 166.937 4.30435 166.937 5.38043V18.6522H168.154C170.257 18.6522 171.699 17.875 172.481 16.3207C173.292 14.7663 173.698 12.659 173.698 9.99864C173.698 7.09919 173.367 4.96196 172.706 3.58696C172.045 2.21196 170.933 1.52446 169.371 1.52446Z" fill="#561010"/>
<path d="M197.484 0C199.197 0 200.579 0.164401 201.631 0.493206C202.713 0.792119 203.764 1.22554 204.786 1.79348C205.117 1.97283 205.402 2.12228 205.642 2.24185C205.913 2.36141 206.138 2.42119 206.319 2.42119C206.589 2.42119 206.799 2.27174 206.95 1.97283C207.1 1.64402 207.22 1.13587 207.31 0.448371H208.347C208.197 2.60054 208.121 6.24728 208.121 11.3886H207.085C206.965 9.68478 206.574 8.05571 205.913 6.50136C205.252 4.94701 204.35 3.67663 203.209 2.69022C202.067 1.7038 200.745 1.2106 199.242 1.2106C197.86 1.2106 196.748 1.58424 195.907 2.33152C195.065 3.04891 194.645 4.06522 194.645 5.38043C194.645 6.39674 194.87 7.27853 195.321 8.02581C195.771 8.7731 196.433 9.50543 197.304 10.2228C198.175 10.9103 199.603 11.9416 201.586 13.3166C201.766 13.4062 201.931 13.5109 202.082 13.6304C202.262 13.75 202.427 13.8696 202.577 13.9891C204.23 15.125 205.552 16.1413 206.544 17.038C207.536 17.9049 208.332 18.9212 208.933 20.087C209.564 21.2527 209.879 22.5978 209.879 24.1223C209.879 26.0652 209.323 27.7092 208.212 29.0543C207.13 30.3696 205.658 31.356 203.794 32.0136C201.931 32.6712 199.873 33 197.619 33C195.786 33 194.254 32.8505 193.022 32.5516C191.82 32.2527 190.693 31.8492 189.642 31.341C188.98 30.9226 188.47 30.7133 188.109 30.7133C187.839 30.7133 187.628 30.8777 187.478 31.2065C187.328 31.5054 187.208 31.9986 187.117 32.6861H186.081C186.201 30.6535 186.261 26.3193 186.261 19.6834H187.298C187.508 23.2405 188.259 26.125 189.551 28.337C190.843 30.5489 192.827 31.6549 195.501 31.6549C197.154 31.6549 198.461 31.2663 199.422 30.4891C200.414 29.712 200.91 28.6359 200.91 27.2609C200.91 25.5571 200.369 24.1073 199.287 22.9117C198.235 21.6861 196.583 20.3261 194.329 18.8315C192.526 17.6359 191.084 16.5897 190.002 15.6929C188.92 14.7962 188.034 13.7649 187.343 12.5992C186.652 11.4035 186.306 10.0285 186.306 8.47418C186.306 6.59103 186.817 5.02174 187.839 3.76631C188.86 2.48098 190.212 1.5394 191.895 0.941575C193.608 0.313857 195.471 0 197.484 0Z" fill="#561010"/>
<path d="M242.209 1.52446C241.278 1.73369 240.587 2.0625 240.136 2.51087C239.685 2.92935 239.385 3.58696 239.235 4.48369C239.084 5.38043 239.009 6.72555 239.009 8.51902V19.3247C239.009 23.6291 238.393 26.7976 237.161 28.8302C236.35 30.1753 235.148 31.2065 233.555 31.9239C231.993 32.6413 229.965 33 227.471 33C223.835 33 221.01 32.2826 218.997 30.8478C217.524 29.8016 216.533 28.3967 216.022 26.6332C215.541 24.8696 215.301 22.4783 215.301 19.4592V5.38043C215.301 4.24456 215.226 3.42256 215.075 2.9144C214.925 2.40625 214.625 2.0625 214.174 1.88315C213.753 1.70381 213.062 1.58424 212.101 1.52446V0.627718C213.813 0.717391 216.458 0.762228 220.033 0.762228C223.579 0.762228 226.269 0.717391 228.102 0.627718V1.52446C227.02 1.58424 226.223 1.70381 225.713 1.88315C225.232 2.0625 224.901 2.40625 224.721 2.9144C224.541 3.42256 224.451 4.24456 224.451 5.38043V23.6739C224.451 26.5435 224.901 28.5611 225.803 29.7269C226.704 30.8628 228.132 31.4307 230.085 31.4307C232.939 31.4307 234.968 30.4293 236.17 28.4266C237.372 26.394 237.973 23.5245 237.973 19.8179V9.41576C237.973 7.20381 237.882 5.61957 237.702 4.66304C237.522 3.67663 237.116 2.95924 236.485 2.51087C235.884 2.0625 234.863 1.73369 233.42 1.52446V0.627718C234.652 0.717391 236.335 0.762228 238.468 0.762228C240.061 0.762228 241.308 0.717391 242.209 0.627718V1.52446Z" fill="#561010"/>
<path d="M285 1.52446C284.038 1.58424 283.332 1.70381 282.882 1.88315C282.461 2.0625 282.175 2.40625 282.025 2.9144C281.875 3.42256 281.8 4.24456 281.8 5.38043V27.6196C281.8 28.7554 281.875 29.5774 282.025 30.0856C282.205 30.5937 282.506 30.9375 282.927 31.1168C283.347 31.2962 284.038 31.4158 285 31.4755V32.3723C283.167 32.2826 280.508 32.2378 277.022 32.2378C273.386 32.2378 270.712 32.2826 268.999 32.3723V31.4755C270.081 31.4158 270.862 31.2962 271.343 31.1168C271.854 30.9375 272.199 30.5937 272.38 30.0856C272.56 29.5774 272.65 28.7554 272.65 27.6196V4.70788L261.787 32.3274H261.066L248.356 3.54212V23.5842C248.356 25.7962 248.446 27.3954 248.626 28.3818C248.806 29.3383 249.197 30.0408 249.798 30.4891C250.429 30.9375 251.466 31.2663 252.908 31.4755V32.3723C251.676 32.2826 249.993 32.2378 247.86 32.2378C246.267 32.2378 245.02 32.2826 244.119 32.3723V31.4755C245.05 31.2663 245.741 30.9524 246.192 30.534C246.643 30.0856 246.943 29.413 247.094 28.5163C247.244 27.6196 247.319 26.2745 247.319 24.481V5.38043C247.319 4.24456 247.229 3.42256 247.048 2.9144C246.898 2.40625 246.613 2.0625 246.192 1.88315C245.771 1.70381 245.08 1.58424 244.119 1.52446V0.627718C245.02 0.717391 246.267 0.762228 247.86 0.762228C251.466 0.762228 254.576 0.717391 257.19 0.627718L265.709 19.6834L273.101 0.762228H277.022C280.508 0.762228 283.167 0.717391 285 0.627718V1.52446Z" fill="#561010"/>
</svg>
