<svg width="70" height="105" viewBox="0 0 70 105" fill="none" xmlns="http://www.w3.org/2000/svg">
<path d="M45 55C45 60.5 40.5 65 35 65C29.5 65 25 60.5 25 55C25 49.5 29.5 45 35 45C40.5 45 45 49.5 45 55ZM10 45C4.5 45 0 49.5 0 55C0 60.5 4.5 65 10 65C15.5 65 20 60.5 20 55C20 49.5 15.5 45 10 45ZM60 45C54.5 45 50 49.5 50 55C50 60.5 54.5 65 60 65C65.5 65 70 60.5 70 55C70 49.5 65.5 45 60 45ZM47.5 25C42 25 37.5 29.5 37.5 35C37.5 40.5 42 45 47.5 45C53 45 57.5 40.5 57.5 35C57.5 29.5 53 25 47.5 25ZM22.5 25C17 25 12.5 29.5 12.5 35C12.5 40.5 17 45 22.5 45C28 45 32.5 40.5 32.5 35C32.5 29.5 28 25 22.5 25ZM47.5 65C42 65 37.5 69.5 37.5 75C37.5 80.5 42 85 47.5 85C53 85 57.5 80.5 57.5 75C57.5 69.5 53 65 47.5 65ZM22.5 65C17 65 12.5 69.5 12.5 75C12.5 80.5 17 85 22.5 85C28 85 32.5 80.5 32.5 75C32.5 69.5 28 65 22.5 65ZM35 85C29.5 85 25 89.5 25 95C25 100.5 29.5 105 35 105C40.5 105 45 100.5 45 95C45 89.5 40.5 85 35 85ZM47 6L43 0C32 5 31 23 31 25H38.5C39 21 40.5 8.5 47 6Z" fill="#561010"/>
</svg>
